<svg width="25" height="25" viewBox="0 0 25 25" fill="none" xmlns="http://www.w3.org/2000/svg">
<g clip-path="url(#clip0_3_90)">
<path d="M12.2017 24.147C9.95166 24.1157 7.93604 23.5688 6.15479 22.5063C4.34229 21.4438 2.90479 20.0063 1.84229 18.1938C0.779785 16.4126 0.23291 14.397 0.20166 12.147C0.23291 9.89697 0.779785 7.88135 1.84229 6.1001C2.90479 4.2876 4.34229 2.8501 6.15479 1.7876C7.93604 0.725098 9.95166 0.178223 12.2017 0.146973C14.4517 0.178223 16.4673 0.725098 18.2485 1.7876C20.061 2.8501 21.4985 4.2876 22.561 6.1001C23.6235 7.88135 24.1704 9.89697 24.2017 12.147C24.1704 14.397 23.6235 16.4126 22.561 18.1938C21.4985 20.0063 20.061 21.4438 18.2485 22.5063C16.4673 23.5688 14.4517 24.1157 12.2017 24.147ZM11.0767 12.147C11.0767 12.5532 11.2485 12.8501 11.5923 13.0376L16.0923 16.0376C16.686 16.4126 17.186 16.3188 17.5923 15.7563C17.9673 15.1626 17.8735 14.647 17.311 14.2095L13.3267 11.5376V5.77197C13.2642 5.08447 12.8735 4.70947 12.1548 4.64697C11.8423 4.64697 11.5767 4.75635 11.3579 4.9751C11.1392 5.19385 11.0298 5.45947 11.0298 5.77197L11.0767 12.147Z" fill="white"/>
</g>
<defs>
<clipPath id="clip0_3_90">
<rect width="24" height="24" fill="white" transform="matrix(1 0 0 -1 0.20166 24.147)"/>
</clipPath>
</defs>
</svg>
