<svg width="59" height="61" viewBox="0 0 59 61" fill="none" xmlns="http://www.w3.org/2000/svg">
<g clip-path="url(#clip0_104_3)">
<rect x="14.904" width="46" height="46" rx="23" transform="rotate(18.905 14.904 0)" fill="white"/>
<path d="M36.3711 8.30527C41.9157 10.2042 46.4789 14.2279 49.0568 19.4912C51.6348 24.7546 52.0162 30.8264 50.1173 36.371C48.2185 41.9157 44.1948 46.4789 38.9314 49.0568C33.668 51.6347 27.5962 52.0162 22.0516 50.1173C16.507 48.2184 11.9438 44.1947 9.36584 38.9313C6.78792 33.668 6.40644 27.5961 8.30533 22.0515C10.2042 16.5069 14.2279 11.9437 19.4913 9.36578C24.7546 6.78786 30.8265 6.40638 36.3711 8.30527Z" stroke="#4DC55A" stroke-width="15.3333" stroke-dasharray="138.87 138.87"/>
</g>
<rect x="15.526" y="1.27006" width="44" height="44" rx="22" transform="rotate(18.905 15.526 1.27006)" stroke="#4DC55A" stroke-width="2"/>
<path d="M39.0763 31.258L33.642 20.1628C33.5375 19.9494 33.3929 19.7667 33.2082 19.6146C32.8479 19.2841 32.424 19.1389 31.9367 19.1792C31.6976 19.1861 31.4713 19.2418 31.2579 19.3463L20.1627 24.7806C19.736 24.9896 19.4366 25.3236 19.2646 25.7826C19.0926 26.2417 19.1155 26.6934 19.3332 27.138C19.5509 27.5825 19.8915 27.8841 20.3551 28.0429C20.8187 28.2016 21.2638 28.1765 21.6906 27.9675L29.0121 24.3485L24.712 36.9045C24.5577 37.3548 24.5895 37.8023 24.8072 38.2468C25.0249 38.6913 25.3589 38.9907 25.8093 39.1449C26.2596 39.2991 26.707 39.2674 27.1515 39.0497C27.5961 38.8319 27.8954 38.4979 28.0497 38.0476L32.3498 25.4915L35.9155 32.8392C36.1245 33.2659 36.4608 33.5587 36.9244 33.7174C37.3879 33.8762 37.8397 33.8533 38.2797 33.6488C38.7197 33.4444 39.0213 33.1037 39.1846 32.6269C39.3479 32.1501 39.3118 31.6938 39.0763 31.258Z" fill="#4DC55A"/>
<g clip-path="url(#clip1_104_3)">
<g clip-path="url(#clip2_104_3)">
<g clip-path="url(#clip3_104_3)">
<path fill-rule="evenodd" clip-rule="evenodd" d="M5.79828 27.2769H14.8183L37.7983 60.4729V67.2769H5.79828V27.2769Z" fill="#4DC55A"/>
<path fill-rule="evenodd" clip-rule="evenodd" d="M14.7983 27.2769C18.3793 27.3269 37.7983 32.7029 37.7983 60.3569V60.3869C24.7203 58.0279 14.7983 46.5879 14.7983 32.8309V27.2769Z" fill="#379641"/>
</g>
</g>
</g>
<defs>
<clipPath id="clip0_104_3">
<rect x="14.904" width="46" height="46" rx="23" transform="rotate(18.905 14.904 0)" fill="white"/>
</clipPath>
<clipPath id="clip1_104_3">
<path d="M4.79828 27.2769H13.7983C27.0531 27.2769 37.7983 38.022 37.7983 51.2769V60.2769H4.79828V27.2769Z" fill="white"/>
</clipPath>
<clipPath id="clip2_104_3">
<rect width="32" height="34" fill="white" transform="translate(5.79828 27.2769)"/>
</clipPath>
<clipPath id="clip3_104_3">
<rect width="32" height="40" fill="white" transform="translate(5.79828 27.2769)"/>
</clipPath>
</defs>
</svg>
